<svg xmlns="http://www.w3.org/2000/svg" version="1.1" xmlns:xlink="http://www.w3.org/1999/xlink" xmlns:svgjs="http://svgjs.com/svgjs" width="512" height="512"><svg id="SvgjsSvg1000" xmlns="http://www.w3.org/2000/svg" viewBox="0 0 512 512">
  <defs>
    <style>
      .cls-1, .cls-2 {
        fill: none;
        stroke: #274e13;
        stroke-miterlimit: 10;
        stroke-width: 22.46px;
      }

      .cls-2 {
        stroke-linecap: round;
      }
    </style>
  </defs>
  <path class="cls-1" d="M451.45,295.42c-9.08,24.81-22.13,48.08-39.11,68.34-35.39,42.25-88.22,70.41-143.3,72.37-46.16,1.64-93.18-15.99-126-48.67-34.85-34.7-43.25-91.6-33.83-138.41,2.69-13.36,6.95-26.42,12.77-38.75,11.34-24.04,28.8-45.83,52.06-58.7,27.48-15.21,60.1-16.78,91.18-21.27,51.24-7.39,103.53-24.56,142.61-59.76,5.09-4.59,9.93-9.45,14.49-14.58.51-.57,1.04-1.17,1.76-1.42,2.09-.74,3.86,1.66,4.78,3.67,10.29,22.4,20.16,45.02,26.82,68.8,7.38,26.24,11.4,53.47,11.3,80.75,0,1.09-.01,2.18-.03,3.28-.45,28.68-5.64,57.42-15.5,84.35Z"></path>
  <path class="cls-2" d="M45.02,457.57c14.59-22.23,33.78-41.87,57.39-54.47,32.8-17.5,55.24-12.39,95.32-28.21,30.58-12.07,52.6-28.89,66.14-40.85"></path>
</svg><style>@media (prefers-color-scheme: light) { :root { filter: none; } }
@media (prefers-color-scheme: dark) { :root { filter: contrast(0.3846153846153846) brightness(4.5); } }
</style></svg>