<svg width="592" height="170" viewBox="0 0 592 170" fill="none" xmlns="http://www.w3.org/2000/svg">
<path d="M529.733 108.25C519.564 108.281 509.754 104.488 502.249 97.625C494.745 90.761 490.094 81.328 489.219 71.196C488.344 61.063 491.31 50.973 497.527 42.924C503.744 34.876 512.759 29.458 522.783 27.746C555.796 21.375 564.483 18.363 576.067 4C581.858 15.583 587.65 28.209 587.65 50.333C587.65 82.188 559.966 108.25 529.733 108.25Z" stroke="#274E13" stroke-width="7" stroke-linecap="round" stroke-linejoin="round"/>
<path d="M470.025 131.542C470.025 114.167 480.74 100.498 499.447 96.792C513.462 94.012 527.942 85.208 533.733 79.417" stroke="#274E13" stroke-width="7" stroke-linecap="round" stroke-linejoin="round"/>
<path d="M72.9 75.98C73.193 77.022 73.291 78.34 73.193 79.936C73.095 81.531 72.819 83.305 72.363 85.258C71.907 87.211 71.272 89.294 70.459 91.508C69.645 93.721 68.652 95.967 67.48 98.246C66.341 100.525 65.039 102.787 63.574 105.033C62.109 107.279 60.481 109.428 58.691 111.479C55.859 114.799 53.369 117.842 51.22 120.609C49.072 123.376 47.216 125.915 45.654 128.227C44.124 130.538 42.871 132.637 41.894 134.525C40.918 136.413 40.185 138.139 39.697 139.701C38.883 140.352 37.955 141.133 36.914 142.045C36.035 142.826 34.993 143.786 33.789 144.926C32.584 146.065 31.282 147.383 29.882 148.881C29.134 143.575 28.141 138.171 26.904 132.67C25.699 127.169 24.3 121.781 22.705 116.508C21.142 111.234 19.433 106.189 17.578 101.371C15.755 96.521 13.867 92.094 11.914 88.09C10.709 85.648 9.45599 83.972 8.15399 83.061C6.85199 82.149 5.501 81.693 4.101 81.693C2.832 81.693 1.464 81.97 0 82.523C1.009 81.71 2.11499 80.766 3.31999 79.691C4.55699 78.617 5.843 77.592 7.177 76.615C8.512 75.639 9.847 74.809 11.181 74.125C12.548 73.441 13.851 73.1 15.087 73.1C16.324 73.1 17.545 73.425 18.75 74.076C19.954 74.727 20.931 75.801 21.679 77.299C22.037 78.048 22.64 79.382 23.486 81.303C24.365 83.191 25.358 85.518 26.464 88.285C27.571 91.02 28.759 94.096 30.029 97.514C31.298 100.932 32.535 104.529 33.74 108.305C34.944 112.081 36.067 115.954 37.109 119.926C38.151 123.865 38.981 127.755 39.599 131.596C40.966 129.545 42.236 127.673 43.408 125.98C44.612 124.255 45.654 122.774 46.533 121.537C47.574 120.072 48.502 118.754 49.316 117.582C51.204 114.783 52.913 112.016 54.443 109.281C55.973 106.547 57.275 103.91 58.349 101.371C59.423 98.832 60.254 96.423 60.839 94.145C61.425 91.833 61.718 89.717 61.718 87.797C61.718 87.016 61.653 86.218 61.523 85.404C61.425 84.59 61.214 83.842 60.888 83.158C60.563 82.475 60.123 81.921 59.57 81.498C59.049 81.042 58.365 80.814 57.519 80.814C56.901 80.814 56.185 80.961 55.371 81.254C54.589 81.547 53.694 82.1 52.685 82.914C53.89 81.742 55.11 80.554 56.347 79.35C57.617 78.113 58.903 77.006 60.205 76.029C61.507 75.053 62.841 74.255 64.209 73.637C65.608 73.018 67.041 72.709 68.505 72.709C69.547 72.709 70.459 72.953 71.24 73.441C72.054 73.93 72.607 74.776 72.9 75.98ZM139.99 99.418C136.246 101.241 132.763 102.868 129.541 104.301C126.351 105.701 123.535 106.889 121.093 107.865C118.261 109.005 115.657 110.014 113.281 110.893C111.816 111.511 110.188 112.146 108.398 112.797C106.64 113.415 104.801 114.034 102.88 114.652C100.96 115.238 98.99 115.84 96.972 116.459C94.987 117.045 93.017 117.631 91.064 118.217V119.193C91.064 122.546 91.585 125.557 92.627 128.227C93.701 130.896 95.182 133.174 97.07 135.062C98.958 136.918 101.22 138.35 103.857 139.359C106.494 140.336 109.407 140.824 112.597 140.824C114.257 140.824 115.901 140.694 117.529 140.434C119.189 140.173 120.752 139.831 122.216 139.408C123.714 138.952 125.114 138.415 126.416 137.797C127.718 137.178 128.873 136.511 129.882 135.795C127.408 138.008 124.853 139.864 122.216 141.361C119.612 142.859 116.992 144.079 114.355 145.023C111.751 145.935 109.163 146.602 106.591 147.025C104.052 147.449 101.611 147.676 99.267 147.709C96.891 147.774 94.547 147.4 92.236 146.586C89.957 145.805 87.874 144.6 85.986 142.973C84.098 141.345 82.503 139.327 81.201 136.918C79.899 134.477 79.052 131.645 78.662 128.422C78.499 127.283 78.418 126.192 78.418 125.15C78.45 124.076 78.564 123.018 78.759 121.977C77.62 122.4 76.578 122.79 75.634 123.148C74.723 123.507 73.974 123.865 73.388 124.223C74.332 123.572 75.276 122.969 76.22 122.416C77.164 121.83 78.092 121.293 79.004 120.805C79.557 118.266 80.501 115.84 81.836 113.529C83.203 111.218 84.83 109.07 86.718 107.084C88.639 105.098 90.771 103.308 93.115 101.713C95.459 100.085 97.884 98.702 100.39 97.562C102.929 96.423 105.501 95.544 108.105 94.926C110.709 94.307 113.232 93.998 115.673 93.998C117.301 93.998 118.668 94.242 119.775 94.73C120.914 95.219 121.679 96.081 122.07 97.318C122.265 98.62 121.793 100.02 120.654 101.518C120.166 102.169 119.498 102.868 118.652 103.617C117.838 104.333 116.764 105.098 115.429 105.912C114.127 106.726 112.548 107.572 110.693 108.451C108.87 109.33 106.705 110.209 104.199 111.088L139.99 99.418ZM101.269 111.283C102.669 110.665 103.922 109.997 105.029 109.281C106.168 108.565 107.047 107.816 107.666 107.035C108.317 106.254 108.658 105.44 108.691 104.594C108.724 103.747 108.382 102.852 107.666 101.908C107.177 101.192 106.494 100.704 105.615 100.443C104.768 100.15 103.89 100.004 102.978 100.004C102.132 100.004 101.318 100.102 100.537 100.297C99.755 100.46 99.072 100.688 98.486 100.98C98.095 101.208 97.558 101.713 96.875 102.494C96.191 103.243 95.491 104.236 94.775 105.473C94.059 106.677 93.375 108.093 92.724 109.721C92.106 111.316 91.65 113.074 91.357 114.994C93.408 114.245 95.263 113.578 96.923 112.992C98.584 112.406 100.032 111.837 101.269 111.283ZM155.078 106.498C156.608 105.033 158.268 103.568 160.058 102.104C161.881 100.639 163.72 99.32 165.576 98.148C167.464 96.944 169.352 95.967 171.24 95.219C173.128 94.47 174.902 94.096 176.562 94.096C177.701 94.096 178.808 94.226 179.882 94.486C180.989 94.714 182.063 94.991 183.105 95.316C184.179 95.609 185.237 95.886 186.279 96.146C187.321 96.374 188.379 96.488 189.453 96.488C190.104 96.488 190.787 96.439 191.504 96.342C192.22 96.244 193.033 96.065 193.945 95.805C191.894 97.367 190.104 98.718 188.574 99.857C187.044 100.997 185.612 101.941 184.277 102.689C182.942 103.406 181.608 103.943 180.273 104.301C178.971 104.626 177.506 104.757 175.879 104.691C174.283 104.659 172.77 104.496 171.337 104.203C169.938 103.91 168.652 103.617 167.48 103.324C166.341 102.999 165.332 102.771 164.453 102.641C163.606 102.478 162.939 102.527 162.451 102.787C161.279 103.373 160.254 104.447 159.375 106.01C158.496 107.572 157.747 109.428 157.129 111.576C156.543 113.725 156.054 116.052 155.664 118.559C155.306 121.065 155.029 123.572 154.834 126.078C154.671 128.585 154.589 130.977 154.589 133.256C154.589 135.502 154.655 137.455 154.785 139.115C152.343 140.678 150.325 142.029 148.73 143.168C147.135 144.307 145.865 145.251 144.921 146C143.815 146.879 142.968 147.644 142.382 148.295C142.415 146.342 142.464 143.982 142.529 141.215C142.594 138.415 142.643 135.486 142.675 132.426C142.74 129.366 142.789 126.339 142.822 123.344C142.854 120.316 142.871 117.598 142.871 115.189C142.871 113.66 142.822 112.113 142.724 110.551C142.659 108.956 142.399 107.507 141.943 106.205C141.487 104.903 140.771 103.845 139.795 103.031C138.851 102.217 137.5 101.811 135.742 101.811C135.058 101.811 134.342 101.892 133.593 102.055C132.877 102.185 132.161 102.429 131.445 102.787C132.812 101.876 134.179 100.948 135.546 100.004C136.914 99.06 138.281 98.214 139.648 97.465C141.048 96.684 142.431 96.065 143.798 95.609C145.198 95.121 146.614 94.877 148.046 94.877C149.772 94.877 151.106 95.251 152.05 96C153.027 96.749 153.727 97.693 154.15 98.832C154.606 99.971 154.866 101.225 154.931 102.592C155.029 103.959 155.078 105.261 155.078 106.498ZM261.963 139.213C257.568 142.208 253.824 144.356 250.732 145.658C247.64 146.96 245.019 147.611 242.871 147.611C241.992 147.611 241.08 147.465 240.136 147.172C239.225 146.911 238.346 146.456 237.5 145.805C236.653 145.121 235.872 144.226 235.156 143.119C234.472 141.98 233.935 140.548 233.545 138.822C231.949 139.994 230.175 141.15 228.222 142.289C226.302 143.428 224.316 144.454 222.265 145.365C220.214 146.277 218.147 147.009 216.064 147.562C214.013 148.116 212.044 148.393 210.156 148.393C206.966 148.393 204.101 147.742 201.562 146.439C199.023 145.17 196.858 143.477 195.068 141.361C193.31 139.245 191.943 136.837 190.966 134.135C190.022 131.433 189.55 128.65 189.55 125.785C189.55 122.595 190.039 119.747 191.015 117.24C192.024 114.701 193.375 112.455 195.068 110.502C196.793 108.516 198.779 106.775 201.025 105.277C203.271 103.747 205.664 102.413 208.203 101.273C210.742 100.134 213.346 99.141 216.015 98.295C218.685 97.416 221.272 96.618 223.779 95.902C224.007 95.87 224.283 95.837 224.609 95.805C224.869 95.772 225.179 95.756 225.537 95.756C225.927 95.723 226.367 95.707 226.855 95.707C227.767 95.707 228.792 95.772 229.931 95.902C231.103 96 232.34 96.195 233.642 96.488L234.668 65.678C234.602 63.887 234.277 62.357 233.691 61.088C233.431 60.567 233.105 60.079 232.714 59.623C232.324 59.135 231.836 58.76 231.25 58.5C230.696 58.24 230.013 58.093 229.199 58.061C228.418 58.028 227.506 58.174 226.464 58.5C227.734 57.914 229.085 57.263 230.517 56.547C231.949 55.798 233.365 55.115 234.765 54.496C236.198 53.845 237.581 53.308 238.916 52.885C240.283 52.429 241.536 52.201 242.675 52.201C243.912 52.201 244.938 52.527 245.752 53.178C246.598 53.829 247.07 54.838 247.168 56.205C247.265 57.117 247.314 58.37 247.314 59.965C247.347 61.56 247.363 63.464 247.363 65.678C247.363 68.314 247.33 71.26 247.265 74.516C247.233 77.738 247.184 81.107 247.119 84.623C247.054 88.139 246.972 91.719 246.875 95.365C246.777 99.011 246.696 102.576 246.63 106.059C246.565 109.542 246.5 112.862 246.435 116.02C246.403 119.145 246.386 121.944 246.386 124.418C246.386 126.371 246.5 128.292 246.728 130.18C246.989 132.068 247.477 133.76 248.193 135.258C248.942 136.755 249.967 137.976 251.269 138.92C252.604 139.831 254.362 140.287 256.543 140.287C257.356 140.287 258.203 140.206 259.082 140.043C259.993 139.88 260.953 139.604 261.963 139.213ZM233.349 107.182C232.21 106.205 230.989 105.391 229.687 104.74C228.385 104.089 227.034 103.568 225.634 103.178C224.267 102.755 222.884 102.462 221.484 102.299C220.117 102.104 218.782 102.006 217.48 102.006C214.648 102.006 212.223 102.429 210.205 103.275C208.219 104.122 206.591 105.326 205.322 106.889C204.052 108.451 203.125 110.323 202.539 112.504C201.953 114.685 201.66 117.11 201.66 119.779C201.66 122.644 202.099 125.362 202.978 127.934C203.89 130.473 205.159 132.719 206.787 134.672C208.414 136.592 210.384 138.122 212.695 139.262C215.039 140.368 217.627 140.922 220.459 140.922C222.477 140.922 224.202 140.678 225.634 140.189C227.067 139.669 228.255 138.969 229.199 138.09C230.175 137.178 230.957 136.088 231.543 134.818C232.129 133.549 232.601 132.149 232.959 130.619C232.959 129.35 232.959 127.868 232.959 126.176C232.991 124.451 233.024 122.595 233.056 120.609C233.121 118.591 233.17 116.459 233.203 114.213C233.235 111.934 233.284 109.59 233.349 107.182ZM328.955 99.418C325.211 101.241 321.728 102.868 318.505 104.301C315.315 105.701 312.5 106.889 310.058 107.865C307.226 109.005 304.622 110.014 302.246 110.893C300.781 111.511 299.153 112.146 297.363 112.797C295.605 113.415 293.766 114.034 291.845 114.652C289.925 115.238 287.955 115.84 285.937 116.459C283.951 117.045 281.982 117.631 280.029 118.217V119.193C280.029 122.546 280.55 125.557 281.591 128.227C282.666 130.896 284.147 133.174 286.035 135.062C287.923 136.918 290.185 138.35 292.822 139.359C295.459 140.336 298.372 140.824 301.562 140.824C303.222 140.824 304.866 140.694 306.494 140.434C308.154 140.173 309.716 139.831 311.181 139.408C312.679 138.952 314.078 138.415 315.38 137.797C316.683 137.178 317.838 136.511 318.847 135.795C316.373 138.008 313.818 139.864 311.181 141.361C308.577 142.859 305.957 144.079 303.32 145.023C300.716 145.935 298.128 146.602 295.556 147.025C293.017 147.449 290.576 147.676 288.232 147.709C285.856 147.774 283.512 147.4 281.201 146.586C278.922 145.805 276.839 144.6 274.951 142.973C273.063 141.345 271.468 139.327 270.166 136.918C268.864 134.477 268.017 131.645 267.627 128.422C267.464 127.283 267.382 126.192 267.382 125.15C267.415 124.076 267.529 123.018 267.724 121.977C266.585 122.4 265.543 122.79 264.599 123.148C263.688 123.507 262.939 123.865 262.353 124.223C263.297 123.572 264.241 122.969 265.185 122.416C266.129 121.83 267.057 121.293 267.968 120.805C268.522 118.266 269.466 115.84 270.8 113.529C272.168 111.218 273.795 109.07 275.683 107.084C277.604 105.098 279.736 103.308 282.08 101.713C284.423 100.085 286.849 98.702 289.355 97.562C291.894 96.423 294.466 95.544 297.07 94.926C299.674 94.307 302.197 93.998 304.638 93.998C306.266 93.998 307.633 94.242 308.74 94.73C309.879 95.219 310.644 96.081 311.035 97.318C311.23 98.62 310.758 100.02 309.619 101.518C309.13 102.169 308.463 102.868 307.617 103.617C306.803 104.333 305.729 105.098 304.394 105.912C303.092 106.726 301.513 107.572 299.658 108.451C297.835 109.33 295.67 110.209 293.164 111.088L328.955 99.418ZM290.234 111.283C291.634 110.665 292.887 109.997 293.994 109.281C295.133 108.565 296.012 107.816 296.63 107.035C297.282 106.254 297.623 105.44 297.656 104.594C297.688 103.747 297.347 102.852 296.63 101.908C296.142 101.192 295.459 100.704 294.58 100.443C293.733 100.15 292.854 100.004 291.943 100.004C291.097 100.004 290.283 100.102 289.502 100.297C288.72 100.46 288.037 100.688 287.451 100.98C287.06 101.208 286.523 101.713 285.839 102.494C285.156 103.243 284.456 104.236 283.74 105.473C283.024 106.677 282.34 108.093 281.689 109.721C281.071 111.316 280.615 113.074 280.322 114.994C282.373 114.245 284.228 113.578 285.888 112.992C287.548 112.406 288.997 111.837 290.234 111.283ZM361.035 137.016C357.78 139.262 355.045 141.117 352.832 142.582C350.618 144.014 348.681 145.154 347.021 146C345.393 146.879 343.912 147.481 342.578 147.807C341.276 148.132 339.892 148.295 338.427 148.295C337.158 148.295 335.921 147.986 334.716 147.367C333.545 146.781 332.487 145.691 331.543 144.096C330.631 142.468 329.899 140.255 329.345 137.455C328.792 134.623 328.515 130.977 328.515 126.518C328.515 122.123 328.564 117.517 328.662 112.699C328.759 107.882 328.857 103.048 328.955 98.197C329.085 93.347 329.199 88.594 329.296 83.939C329.394 79.285 329.443 74.939 329.443 70.902C329.443 66.931 328.841 63.839 327.636 61.625C326.432 59.411 324.593 58.305 322.119 58.305C321.37 58.305 320.54 58.419 319.629 58.646C318.717 58.842 317.757 59.2 316.748 59.721C318.017 58.809 319.352 57.882 320.752 56.938C322.151 55.961 323.567 55.082 325 54.301C326.464 53.52 327.929 52.885 329.394 52.396C330.892 51.876 332.373 51.615 333.837 51.615C335.693 51.615 337.142 52.087 338.183 53.031C339.257 53.943 340.039 55.082 340.527 56.449C341.048 57.816 341.357 59.314 341.455 60.941C341.585 62.536 341.65 64.018 341.65 65.385C341.617 67.468 341.569 69.975 341.504 72.904C341.471 75.834 341.422 78.992 341.357 82.377C341.292 85.73 341.227 89.213 341.162 92.826C341.097 96.439 341.032 99.988 340.966 103.471C340.901 106.921 340.836 110.209 340.771 113.334C340.739 116.459 340.69 119.21 340.625 121.586C340.56 124.776 340.787 127.543 341.308 129.887C341.829 132.198 342.578 134.102 343.554 135.6C344.531 137.097 345.703 138.204 347.07 138.92C348.437 139.636 349.951 139.994 351.611 139.994C354.606 139.994 357.747 139.001 361.035 137.016ZM436.279 137.016C433.837 138.806 431.705 140.352 429.882 141.654C428.06 142.956 426.367 144.031 424.804 144.877C423.242 145.691 421.744 146.26 420.312 146.586C418.88 146.944 417.334 147.074 415.673 146.977C414.404 146.911 413.313 146.635 412.402 146.146C411.523 145.691 410.791 145.023 410.205 144.145C409.619 143.233 409.163 142.126 408.837 140.824C408.545 139.49 408.349 137.911 408.252 136.088C406.396 137.683 404.476 139.164 402.49 140.531C400.504 141.898 398.437 143.087 396.289 144.096C394.173 145.072 391.976 145.837 389.697 146.391C387.451 146.944 385.14 147.221 382.763 147.221C379.508 147.221 376.839 146.732 374.755 145.756C372.672 144.779 371.012 143.412 369.775 141.654C368.571 139.896 367.724 137.797 367.236 135.355C366.78 132.914 366.552 130.229 366.552 127.299C366.552 125.378 366.585 123.49 366.65 121.635C366.715 119.779 366.748 117.973 366.748 116.215C366.748 114.164 366.666 112.243 366.504 110.453C366.373 108.663 366.08 107.117 365.625 105.814C365.201 104.48 364.567 103.438 363.72 102.689C362.907 101.908 361.816 101.518 360.449 101.518C359.31 101.518 357.942 101.811 356.347 102.396C357.552 101.452 358.805 100.492 360.107 99.516C361.442 98.539 362.793 97.66 364.16 96.879C365.56 96.098 366.976 95.463 368.408 94.975C369.873 94.454 371.354 94.193 372.851 94.193C374.218 94.193 375.293 94.519 376.074 95.17C376.888 95.821 377.506 96.667 377.929 97.709C378.352 98.718 378.629 99.857 378.759 101.127C378.89 102.364 378.955 103.585 378.955 104.789C378.955 108.012 378.922 111.088 378.857 114.018C378.792 116.947 378.759 119.877 378.759 122.807C378.792 125.346 379.085 127.608 379.638 129.594C380.192 131.547 381.054 133.207 382.226 134.574C383.431 135.941 384.977 136.967 386.865 137.65C388.785 138.334 391.113 138.643 393.847 138.578C395.898 138.546 397.688 138.383 399.218 138.09C400.781 137.797 402.132 137.276 403.271 136.527C404.443 135.779 405.42 134.786 406.201 133.549C407.015 132.279 407.698 130.668 408.252 128.715C408.349 124.385 408.479 120.268 408.642 116.361C408.805 112.455 408.886 108.565 408.886 104.691C408.854 103.91 408.658 103.243 408.3 102.689C408.007 102.234 407.519 101.876 406.836 101.615C406.185 101.355 405.257 101.387 404.052 101.713C404.996 100.997 406.054 100.199 407.226 99.32C408.398 98.441 409.586 97.611 410.791 96.83C412.028 96.049 413.232 95.398 414.404 94.877C415.608 94.356 416.731 94.096 417.773 94.096C418.88 94.096 419.824 94.421 420.605 95.072C421.386 95.723 421.777 96.667 421.777 97.904C421.777 98.588 421.761 99.809 421.728 101.566C421.728 103.292 421.696 105.31 421.63 107.621C421.598 109.932 421.565 112.39 421.533 114.994C421.5 117.598 421.468 120.105 421.435 122.514C421.403 124.89 421.386 127.055 421.386 129.008C421.386 130.961 421.386 132.426 421.386 133.402C421.451 135.258 422.168 136.625 423.535 137.504C424.935 138.383 426.643 138.822 428.662 138.822C429.866 138.822 431.119 138.676 432.421 138.383C433.756 138.057 435.042 137.602 436.279 137.016ZM500.048 136.723C497.64 138.578 495.491 140.173 493.603 141.508C491.715 142.842 489.99 143.949 488.427 144.828C486.897 145.707 485.481 146.374 484.179 146.83C482.91 147.286 481.705 147.579 480.566 147.709C478.808 147.904 477.229 147.383 475.83 146.146C474.463 144.91 473.014 143.168 471.484 140.922C471.126 140.434 470.638 139.75 470.019 138.871C469.433 137.96 468.75 136.918 467.968 135.746C467.187 134.542 466.324 133.24 465.38 131.84C464.469 130.408 463.525 128.926 462.548 127.396C460.726 130.098 458.903 132.8 457.08 135.502C455.257 138.171 453.483 140.71 451.757 143.119C450.065 145.495 448.437 147.676 446.875 149.662C445.345 151.648 443.945 153.292 442.675 154.594C440.787 156.677 438.818 158.646 436.767 160.502C435.888 161.316 434.944 162.13 433.935 162.943C432.893 163.79 431.819 164.604 430.713 165.385C429.606 166.166 428.466 166.882 427.295 167.533C426.123 168.217 424.951 168.803 423.779 169.291L423.388 165.678C425.081 165.092 426.709 164.343 428.271 163.432C429.801 162.52 431.168 161.641 432.373 160.795C433.772 159.786 435.074 158.76 436.279 157.719C437.841 156.319 439.453 154.561 441.113 152.445C442.806 150.362 444.515 148.051 446.24 145.512C447.998 142.973 449.755 140.271 451.513 137.406C453.304 134.509 455.061 131.579 456.787 128.617C457.242 127.803 457.731 126.973 458.252 126.127C458.805 125.248 459.375 124.337 459.961 123.393C458.821 121.667 457.698 119.975 456.591 118.314C455.517 116.622 454.492 115.043 453.515 113.578C452.571 112.113 451.709 110.811 450.927 109.672C450.179 108.5 449.56 107.572 449.072 106.889C447.933 105.294 446.679 104.171 445.312 103.52C443.977 102.836 442.627 102.494 441.259 102.494C440.218 102.494 439.176 102.657 438.134 102.982C437.093 103.308 436.1 103.78 435.156 104.398C436.425 103.161 437.744 101.924 439.111 100.688C440.511 99.418 441.943 98.295 443.408 97.318C444.905 96.309 446.435 95.495 447.998 94.877C449.593 94.226 451.22 93.9 452.88 93.9C453.89 93.9 454.85 94.063 455.761 94.389C456.705 94.714 457.568 95.284 458.349 96.098C458.805 96.586 459.391 97.335 460.107 98.344C460.856 99.32 461.686 100.492 462.597 101.859C463.509 103.194 464.485 104.675 465.527 106.303C466.601 107.898 467.708 109.558 468.847 111.283C470.768 109.005 472.802 106.807 474.951 104.691C477.099 102.576 479.296 100.72 481.543 99.125C483.789 97.497 486.067 96.212 488.379 95.268C490.69 94.291 492.985 93.803 495.263 93.803C496.175 93.803 497.07 93.884 497.949 94.047C498.828 94.177 499.772 94.389 500.781 94.682C500.683 94.747 500.358 94.91 499.804 95.17C499.251 95.43 498.502 95.886 497.558 96.537C496.614 97.188 495.475 98.067 494.14 99.174C492.838 100.281 491.341 101.697 489.648 103.422C488.509 102.608 487.467 102.055 486.523 101.762C485.579 101.469 484.733 101.322 483.984 101.322C483.333 101.322 482.552 101.664 481.64 102.348C480.761 102.999 479.768 103.926 478.662 105.131C477.555 106.335 476.351 107.768 475.048 109.428C473.779 111.055 472.444 112.846 471.045 114.799C472.151 116.557 473.242 118.298 474.316 120.023C475.39 121.716 476.399 123.311 477.343 124.809C478.287 126.306 479.15 127.657 479.931 128.861C480.745 130.066 481.429 131.042 481.982 131.791C483.479 134.037 485.107 135.811 486.865 137.113C488.655 138.383 490.625 139.018 492.773 139.018C494.987 139.018 497.412 138.253 500.048 136.723Z" fill="#274E13"/>
</svg>
